<svg width="64" height="64" viewBox="0 0 64 64" fill="none" xmlns="http://www.w3.org/2000/svg">
  <defs>
    <linearGradient id="bg" x1="0" y1="0" x2="64" y2="64" gradientUnits="userSpaceOnUse">
      <stop stop-color="#1d4ed8"/>
      <stop offset="1" stop-color="#4338ca"/>
    </linearGradient>
  </defs>

  <!-- Background: 64×64 with 8px min padding on all sides -->
  <rect width="64" height="64" rx="14" fill="url(#bg)"/>

  <!-- ① Cloud — top center, x=12..52, y=8..26 -->
  <g fill="white">
    <circle cx="32" cy="14" r="7"/>
    <circle cx="19" cy="19" r="5.5"/>
    <circle cx="45" cy="19" r="5.5"/>
    <rect x="13" y="18" width="38" height="9" rx="4.5"/>
  </g>

  <!-- ② Envelope — bottom left, x=8..34, y=33..55 -->
  <rect x="8" y="33" width="26" height="18" rx="1.5" fill="white"/>
  <path d="M8,33.5 L21,43 L34,33.5" fill="none" stroke="#3730a3" stroke-opacity="0.3" stroke-width="2" stroke-linejoin="round"/>

  <!-- ③ Shield — bottom right, x=37..56, y=30..56 -->
  <path d="M46.5,56 C37,52 37,46 37,40 C37,33 39,30 46.5,30 C54,30 56,33 56,40 C56,46 56,52 46.5,56 Z" fill="white"/>
  <path d="M41,42 L45,47 L53,37" fill="none" stroke="#3730a3" stroke-width="2.5" stroke-linecap="round" stroke-linejoin="round"/>
</svg>
